<?xml version="1.0" encoding="UTF-8" standalone="no"?>
<!-- Created with Inkscape (http://www.inkscape.org/) -->

<svg
   width="100mm"
   height="100mm"
   viewBox="0 0 100 100"
   version="1.1"
   id="svg5"
   inkscape:version="1.2.2 (732a01da63, 2022-12-09)"
   sodipodi:docname="_chamada_B.svg"
   inkscape:export-filename="_modelo_01.png"
   inkscape:export-xdpi="96"
   inkscape:export-ydpi="96"
   xmlns:inkscape="http://www.inkscape.org/namespaces/inkscape"
   xmlns:sodipodi="http://sodipodi.sourceforge.net/DTD/sodipodi-0.dtd"
   xmlns="http://www.w3.org/2000/svg"
   xmlns:svg="http://www.w3.org/2000/svg">
  <sodipodi:namedview
     id="namedview7"
     pagecolor="#505050"
     bordercolor="#eeeeee"
     borderopacity="1"
     inkscape:showpageshadow="0"
     inkscape:pageopacity="0"
     inkscape:pagecheckerboard="0"
     inkscape:deskcolor="#505050"
     inkscape:document-units="mm"
     showgrid="false"
     inkscape:zoom="1.3070417"
     inkscape:cx="94.488187"
     inkscape:cy="130.8298"
     inkscape:window-width="1920"
     inkscape:window-height="1009"
     inkscape:window-x="1358"
     inkscape:window-y="-8"
     inkscape:window-maximized="1"
     inkscape:current-layer="layer3" />
  <defs
     id="defs2">
    <rect
       x="39.019414"
       y="73.783488"
       width="234.11648"
       height="47.830558"
       id="rect6613" />
    <rect
       x="49.730626"
       y="102.5216"
       width="260.12943"
       height="168.31904"
       id="rect749" />
    <rect
       x="26.778029"
       y="101.75651"
       width="224.17036"
       height="224.17036"
       id="rect693" />
    <rect
       x="27.543116"
       y="108.64229"
       width="267.78029"
       height="241.76735"
       id="rect687" />
    <rect
       x="24.48277"
       y="138.48067"
       width="287.67254"
       height="193.5669"
       id="rect631" />
    <rect
       x="39.019413"
       y="73.783485"
       width="234.11649"
       height="47.830559"
       id="rect6613-7" />
    <rect
       x="39.019413"
       y="73.783485"
       width="234.11649"
       height="47.830559"
       id="rect6613-7-3" />
    <rect
       x="39.019413"
       y="73.783485"
       width="234.11649"
       height="47.830559"
       id="rect6613-7-1" />
    <rect
       x="39.019413"
       y="73.783485"
       width="234.11649"
       height="47.830559"
       id="rect6613-7-9" />
    <rect
       x="39.019413"
       y="73.783485"
       width="234.11649"
       height="47.830559"
       id="rect6613-71" />
    <rect
       x="39.019413"
       y="73.783485"
       width="234.11649"
       height="47.830559"
       id="rect6613-7-7" />
    <rect
       x="39.019413"
       y="73.783485"
       width="234.11649"
       height="47.830559"
       id="rect6613-7-3-1" />
    <rect
       x="39.019413"
       y="73.783485"
       width="234.11649"
       height="47.830559"
       id="rect6613-7-1-2" />
    <rect
       x="39.019413"
       y="73.783485"
       width="234.11649"
       height="47.830559"
       id="rect6613-7-9-4" />
    <rect
       x="39.019413"
       y="73.783485"
       width="234.11649"
       height="47.830559"
       id="rect6613-7-9-4-7" />
    <rect
       x="39.019413"
       y="73.783485"
       width="234.11649"
       height="47.830559"
       id="rect6613-7-1-2-1" />
    <rect
       x="39.019413"
       y="73.783485"
       width="234.11649"
       height="47.830559"
       id="rect6613-7-3-1-2" />
    <rect
       x="39.019413"
       y="73.783485"
       width="234.11649"
       height="47.830559"
       id="rect6613-7-7-9" />
    <rect
       x="39.019413"
       y="73.783485"
       width="234.11649"
       height="47.830559"
       id="rect6613-71-0" />
    <rect
       x="39.019413"
       y="73.783485"
       width="270.84065"
       height="174.33655"
       id="rect6613-71-0-8" />
    <rect
       x="39.019413"
       y="73.783485"
       width="270.84064"
       height="174.33655"
       id="rect6613-71-0-8-8" />
  </defs>
  <g
     inkscape:label="Layer 1"
     inkscape:groupmode="layer"
     id="layer1"
     style="display:inline"
     sodipodi:insensitive="true">
    <rect
       style="fill:#ffffff;fill-opacity:1;stroke:none;stroke-width:0.227702;stroke-linejoin:round;stroke-dasharray:none;stroke-dashoffset:0"
       id="rect859-9"
       width="99.807442"
       height="99.807442"
       x="0.19255848"
       y="0.19255829" />
    <text
       xml:space="preserve"
       style="font-size:50.8px;font-family:Jokerman;-inkscape-font-specification:'Jokerman, Normal';fill:#800000;stroke:#000000;stroke-width:0.0860298"
       x="12.753036"
       y="14.574899"
       id="text236"><tspan
         sodipodi:role="line"
         id="tspan234"
         style="stroke-width:0.0860298"
         x="12.753036"
         y="14.574899" /></text>
    <text
       xml:space="preserve"
       style="font-size:50.8px;font-family:Jokerman;-inkscape-font-specification:'Jokerman, Normal';fill:#000000;stroke:#000000;stroke-width:0.0860298"
       x="4.8582997"
       y="41.776791"
       id="text240-9"><tspan
         sodipodi:role="line"
         id="tspan238-1"
         style="font-style:normal;font-variant:normal;font-weight:bold;font-stretch:normal;font-size:7.05556px;font-family:'Comic Sans MS';-inkscape-font-specification:'Comic Sans MS, Bold';font-variant-ligatures:normal;font-variant-caps:normal;font-variant-numeric:normal;font-variant-east-asian:normal;fill:#000000;stroke-width:0.0860298"
         x="4.8582997"
         y="41.776791" /></text>
    <text
       xml:space="preserve"
       transform="scale(0.26458333)"
       id="text629"
       style="font-style:normal;font-variant:normal;font-weight:bold;font-stretch:normal;font-size:14.6875px;font-family:'Comic Sans MS';-inkscape-font-specification:'Comic Sans MS, Bold';font-variant-ligatures:normal;font-variant-caps:normal;font-variant-numeric:normal;font-variant-east-asian:normal;white-space:pre;shape-inside:url(#rect631);display:inline;fill:#000000;stroke:#000000;stroke-width:0.325152" />
    <text
       xml:space="preserve"
       transform="scale(0.26458333)"
       id="text685"
       style="font-style:normal;font-variant:normal;font-weight:bold;font-stretch:normal;font-size:14.6875px;font-family:'Comic Sans MS';-inkscape-font-specification:'Comic Sans MS, Bold';font-variant-ligatures:normal;font-variant-caps:normal;font-variant-numeric:normal;font-variant-east-asian:normal;white-space:pre;shape-inside:url(#rect687);display:inline;fill:#000000;stroke:#000000;stroke-width:0.325152" />
    <text
       xml:space="preserve"
       transform="scale(0.26458333)"
       id="text691"
       style="font-style:normal;font-variant:normal;font-weight:bold;font-stretch:normal;font-size:14.6875px;font-family:'Comic Sans MS';-inkscape-font-specification:'Comic Sans MS, Bold';font-variant-ligatures:normal;font-variant-caps:normal;font-variant-numeric:normal;font-variant-east-asian:normal;white-space:pre;shape-inside:url(#rect693);display:inline;fill:#000000;stroke:#000000;stroke-width:0.325152" />
  </g>
  <g
     inkscape:groupmode="layer"
     id="layer2"
     inkscape:label="Layer 2"
     style="display:inline"
     sodipodi:insensitive="true">
    <text
       xml:space="preserve"
       style="font-size:50.8px;font-family:Jokerman;-inkscape-font-specification:'Jokerman, Normal';fill:#000000;stroke:#000000;stroke-width:0.0860298"
       x="-68.841965"
       y="19.572922"
       id="text240"><tspan
         sodipodi:role="line"
         id="tspan238"
         style="font-style:normal;font-variant:normal;font-weight:normal;font-stretch:normal;font-size:7.05556px;font-family:Jokerman;-inkscape-font-specification:'Jokerman, Normal';font-variant-ligatures:normal;font-variant-caps:normal;font-variant-numeric:normal;font-variant-east-asian:normal;fill:#000000;stroke-width:0.0860298"
         x="-68.841965"
         y="19.572922">profico-hq</tspan></text>
  </g>
  <g
     inkscape:groupmode="layer"
     id="layer3"
     inkscape:label="Layer 3"
     style="display:inline">
    <rect
       style="fill:#0823a3;fill-opacity:1;stroke:#000000;stroke-width:0.0702919;stroke-linejoin:round;stroke-dasharray:none;stroke-dashoffset:0"
       id="rect859"
       width="75.012733"
       height="12.655169"
       x="-83.945892"
       y="26.560061" />
    <rect
       style="fill:#4c94f6;fill-opacity:1;stroke:#000000;stroke-width:0.0702919;stroke-linejoin:round;stroke-dasharray:none;stroke-dashoffset:0"
       id="rect859-7"
       width="75.012733"
       height="12.655169"
       x="-83.945892"
       y="41.949169" />
    <rect
       style="fill:#067110;fill-opacity:1;stroke:#000000;stroke-width:0.0702919;stroke-linejoin:round;stroke-dasharray:none;stroke-dashoffset:0"
       id="rect859-4"
       width="75.012733"
       height="12.655169"
       x="-83.945892"
       y="57.33828" />
    <rect
       style="fill:#987300;fill-opacity:1;stroke:#000000;stroke-width:0.0702919;stroke-linejoin:round;stroke-dasharray:none;stroke-dashoffset:0"
       id="rect859-7-7"
       width="75.012733"
       height="12.655169"
       x="-83.945892"
       y="72.727394" />
    <rect
       style="fill:#9d0f0f;fill-opacity:1;stroke:#000000;stroke-width:0.0702919;stroke-linejoin:round;stroke-dasharray:none;stroke-dashoffset:0"
       id="rect859-4-7"
       width="75.012733"
       height="12.655169"
       x="-83.945892"
       y="88.116508" />
    <text
       xml:space="preserve"
       transform="matrix(0.26458333,0,0,0.26458333,-87.631786,11.15176)"
       id="text6611"
       style="font-style:normal;font-variant:normal;font-weight:bold;font-stretch:normal;font-size:14.6875px;font-family:'Comic Sans MS';-inkscape-font-specification:'Comic Sans MS, Bold';font-variant-ligatures:normal;font-variant-caps:normal;font-variant-numeric:normal;font-variant-east-asian:normal;white-space:pre;shape-inside:url(#rect6613-71-0);display:inline;fill:#ffffff;fill-opacity:1;stroke:#ffffff;stroke-width:0.325152;stroke-linejoin:round;stroke-dasharray:none;stroke-dashoffset:0"
       x="31.426086"
       y="0"><tspan
         x="120.70179"
         y="86.54472"
         id="tspan8360"><tspan
           style="text-align:center;text-anchor:middle"
           id="tspan8356">	</tspan><tspan
           style="text-align:center;text-anchor:middle"
           id="tspan8358">#4c69f6</tspan></tspan></text>
    <text
       xml:space="preserve"
       transform="matrix(0.26458333,0,0,0.26458333,-87.631786,26.755096)"
       id="text6611-8"
       style="font-style:normal;font-variant:normal;font-weight:bold;font-stretch:normal;font-size:14.6875px;font-family:'Comic Sans MS';-inkscape-font-specification:'Comic Sans MS, Bold';font-variant-ligatures:normal;font-variant-caps:normal;font-variant-numeric:normal;font-variant-east-asian:normal;white-space:pre;shape-inside:url(#rect6613-7-7-9);display:inline;fill:#000000;fill-opacity:1;stroke:#000000;stroke-width:0.325152;stroke-linejoin:round;stroke-dasharray:none;stroke-dashoffset:0"
       x="31.426086"
       y="0"><tspan
         x="124.45482"
         y="86.54472"
         id="tspan8364"><tspan
           style="text-align:center;text-anchor:middle"
           id="tspan8362">#4c94f6</tspan></tspan></text>
    <text
       xml:space="preserve"
       transform="matrix(0.26458333,0,0,0.26458333,-87.631786,42.358431)"
       id="text6611-8-8"
       style="font-style:normal;font-variant:normal;font-weight:bold;font-stretch:normal;font-size:14.6875px;font-family:'Comic Sans MS';-inkscape-font-specification:'Comic Sans MS, Bold';font-variant-ligatures:normal;font-variant-caps:normal;font-variant-numeric:normal;font-variant-east-asian:normal;white-space:pre;shape-inside:url(#rect6613-7-3-1-2);display:inline;fill:#ffffff;fill-opacity:1;stroke:#ffffff;stroke-width:0.325152;stroke-linejoin:round;stroke-dasharray:none;stroke-dashoffset:0"
       x="31.931686"
       y="0"><tspan
         x="124.03886"
         y="86.54472"
         id="tspan8368"><tspan
           style="text-align:center;text-anchor:middle"
           id="tspan8366">#f6db35</tspan></tspan></text>
    <text
       xml:space="preserve"
       transform="matrix(0.26458333,0,0,0.26458333,-87.631786,57.533317)"
       id="text6611-8-9"
       style="font-style:normal;font-variant:normal;font-weight:bold;font-stretch:normal;font-size:14.6875px;font-family:'Comic Sans MS';-inkscape-font-specification:'Comic Sans MS, Bold';font-variant-ligatures:normal;font-variant-caps:normal;font-variant-numeric:normal;font-variant-east-asian:normal;white-space:pre;shape-inside:url(#rect6613-7-1-2-1);display:inline;fill:#000000;fill-opacity:1;stroke:#000000;stroke-width:0.325152;stroke-linejoin:round;stroke-dasharray:none;stroke-dashoffset:0"
       x="30.859528"
       y="0"><tspan
         x="121.45122"
         y="86.54472"
         id="tspan8374"><tspan
           style="text-align:center;text-anchor:middle"
           id="tspan8370">	</tspan><tspan
           style="text-align:center;text-anchor:middle"
           id="tspan8372">#ffc510</tspan></tspan></text>
    <text
       xml:space="preserve"
       transform="matrix(0.26458333,0,0,0.26458333,-87.631786,72.708203)"
       id="text6611-8-4"
       style="font-style:normal;font-variant:normal;font-weight:bold;font-stretch:normal;font-size:14.6875px;font-family:'Comic Sans MS';-inkscape-font-specification:'Comic Sans MS, Bold';font-variant-ligatures:normal;font-variant-caps:normal;font-variant-numeric:normal;font-variant-east-asian:normal;white-space:pre;shape-inside:url(#rect6613-7-9-4-7);display:inline;fill:#ffffff;fill-opacity:1;stroke:#ffffff;stroke-width:0.325152;stroke-linejoin:round;stroke-dasharray:none;stroke-dashoffset:0"
       x="32.351273"
       y="0"><tspan
         x="123.74841"
         y="86.54472"
         id="tspan8378"><tspan
           style="text-align:center;text-anchor:middle"
           id="tspan8376">#ee5454</tspan></tspan></text>
    <path
       style="display:inline;fill:#000000;fill-opacity:1;stroke:#000000;stroke-width:0.0860298;stroke-linejoin:round"
       id="path8074"
       d="m 49.939539,59.034495 c -0.44425,1.50217 -0.92462,3.002225 -1.06784,4.57227 -0.15667,1.717461 -0.0393,2.201479 0.1046,3.925181 0.41923,2.504871 1.2018,4.943092 2.60435,7.078226 0.3185,0.484862 0.65287,0.963028 1.03761,1.397198 0.38923,0.43923 0.85051,0.808901 1.27576,1.213351 2.55323,1.896824 5.37836,3.304812 8.58358,3.520336 1.68665,0.113414 2.09765,-0.04069 3.72716,-0.295706 0.54193,-0.193125 1.1045,-0.335957 1.62579,-0.579374 1.55022,-0.723884 2.80374,-1.870313 3.75643,-3.279259 0.88629,-1.31077 0.97247,-1.753878 1.56551,-3.225459 0.16648,-0.668403 0.36197,-1.330245 0.49945,-2.005213 0.23643,-1.160804 0.49528,-3.135405 0.5959,-4.320786 0.10851,-1.278258 0.1705,-2.681732 0.0488,-3.965086 -0.0559,-0.589637 -0.19025,-1.169185 -0.28538,-1.75378 -0.48263,-1.392168 -0.50984,-1.880084 -1.4755,-3.035035 -0.85031,-1.016998 -1.81637,-1.659057 -2.99328,-2.253459 -3.44532,-1.740075 -2.73288,-1.418585 -5.74107,-2.170485 -2.72937,-0.637175 -5.52144,-0.739037 -8.29041,-0.318445 -1.36738,0.207698 -2.31172,0.476496 -3.6377,0.809681 -0.47228,0.143401 -0.94456,0.286803 -1.41684,0.430204 0,0 1.5036,1.02443 1.5036,1.02443 v 0 c 0.46049,-0.147611 0.92098,-0.29522 1.38148,-0.442828 1.36638,-0.35237 2.17789,-0.597792 3.59679,-0.807336 2.7493,-0.406019 5.52229,-0.284769 8.22852,0.349466 0.73489,0.191516 1.45729,0.439743 2.20467,0.574548 0.17574,0.0317 0.36396,-0.148325 0.52951,-0.08138 1.60718,0.649906 3.1393,2.003713 3.92935,3.552287 0.25589,0.501568 0.38668,1.057675 0.58002,1.586514 0.10396,0.580342 0.24839,1.154874 0.31188,1.741027 0.13732,1.267886 0.0888,2.690839 -0.011,3.95506 -0.0992,1.256488 -0.33517,3.062465 -0.59584,4.293608 -0.1406,0.664046 -0.34179,1.313802 -0.51269,1.970701 -0.58752,1.444123 -0.67701,1.889131 -1.55407,3.173191 -0.93981,1.375931 -2.17773,2.495962 -3.70057,3.195759 -0.51266,0.235582 -1.06526,0.372171 -1.59789,0.558257 -1.6143,0.245264 -2.00648,0.395846 -3.67841,0.265732 -2.46416,-0.19177 -1.45039,-0.311028 -3.82707,-0.876398 -0.0728,-0.01733 -0.14352,0.116409 -0.20946,0.08098 -0.52624,-0.282747 -0.99392,-0.663043 -1.49088,-0.994566 -0.42863,-0.394642 -0.89354,-0.75321 -1.28591,-1.183928 -0.38945,-0.427519 -0.72707,-0.901338 -1.05044,-1.380786 -1.42309,-2.109915 -2.23295,-4.522772 -2.66134,-7.017695 -0.056,-0.656709 -0.15234,-1.311222 -0.16802,-1.97013 -0.0523,-2.197875 0.46291,-4.328096 1.28692,-6.351939 0,0 -1.72601,-0.958935 -1.72601,-0.958935 z" />
    <path
       style="display:inline;fill:#000000;fill-opacity:1;stroke:#000000;stroke-width:0.0860298;stroke-linejoin:round"
       id="path8092"
       d="m 53.817859,65.679307 c 0.77696,0.344406 1.52797,0.290351 2.30403,-0.01857 0.14393,-0.09785 0.31112,-0.175184 0.39037,-0.343445 0.29646,-0.62945 -1.39917,-1.135534 -1.84783,-1.394217 0,0 1.55845,1.227352 1.55845,1.227352 v 0 c -0.52384,-0.31573 -1.05331,-0.622313 -1.57154,-0.94719 -0.0542,-0.034 0.17939,0.03978 0.16295,0.101645 -0.0313,0.117676 -0.24234,0.22112 -0.31117,0.266171 -0.76453,0.266874 -1.5047,0.250886 -2.23144,-0.128537 0,0 1.54618,1.236797 1.54618,1.236797 z" />
    <path
       style="display:inline;fill:#000000;fill-opacity:1;stroke:#000000;stroke-width:0.0860298;stroke-linejoin:round"
       id="path8094"
       d="m 61.241889,63.743565 c 0.88778,0.728287 2.17207,1.861548 3.34885,1.469144 0.1024,-0.03414 0.1911,-0.100414 0.28665,-0.150622 1.25951,-1.136959 -0.29528,-1.380855 -1.51367,-2.069454 -0.56954,-0.03007 -0.27211,-0.02627 -0.89235,-0.0048 0,0 1.57123,1.139132 1.57123,1.139132 v 0 c 0.61251,0.009 0.32079,-0.01855 0.87611,0.07172 -0.47769,-0.309708 -0.95097,-0.626325 -1.43307,-0.929124 -0.0366,-0.02302 0.0772,0.04916 0.0949,0.08865 0.0192,0.04265 0.015,0.09384 0.008,0.14006 -0.0328,0.213844 -0.18188,0.36109 -0.34909,0.481142 -0.25141,0.104515 -0.27159,0.141867 -0.56541,0.132347 -0.12296,-0.004 -0.46006,-0.129807 -0.36549,-0.05113 0.392,0.326126 0.86232,0.54455 1.29082,0.820968 0.10212,0.06587 -0.21282,-0.118433 -0.31155,-0.189267 -0.0796,-0.05709 -0.14762,-0.128752 -0.22143,-0.193127 0,0 -1.82437,-0.75568 -1.82437,-0.75568 z" />
    <path
       style="display:inline;fill:#000000;fill-opacity:1;stroke:#000000;stroke-width:0.0860298;stroke-linejoin:round"
       id="path8098"
       d="m 56.128769,72.27941 c 1.74397,-1.079463 3.58592,-1.965775 5.50047,-2.694863 1.67808,-0.620438 2.47797,-0.645343 4.10306,0.01582 0.41155,0.196257 1.94342,0.940593 -0.72891,-0.454324 -0.14349,-0.0749 0.27194,0.175604 0.40736,0.26426 0.31585,0.206785 0.63474,0.407998 0.95118,0.613828 0.06,0.04525 0.12008,0.09049 0.18012,0.135742 0,0 1.82933,0.734454 1.82933,0.734454 v 0 c -0.0612,-0.05207 -0.12244,-0.10414 -0.18367,-0.15621 -1.26827,-0.859054 -2.58569,-1.684329 -3.97309,-2.328563 -0.43158,-0.159099 -0.67523,-0.269743 -1.13513,-0.351899 -1.04741,-0.18711 -2.03199,0.10237 -3.00239,0.485066 -1.92968,0.769943 -3.78356,1.697292 -5.61446,2.677441 0,0 1.66613,1.059246 1.66613,1.059246 z" />
    <path
       style="display:inline;fill:#000000;fill-opacity:1;stroke:#000000;stroke-width:0.0860298;stroke-linejoin:round"
       id="path8100"
       d="m 54.249169,71.864895 c 0.15791,0.107003 0.31957,0.208677 0.47374,0.321008 0.8222,0.599078 1.59712,1.259118 2.42316,1.853936 0.93005,0.669711 1.06413,0.736087 2.01157,1.337686 0.94077,0.538993 2.20303,1.552186 3.4556,1.679662 1.00799,0.102584 1.98652,-0.324406 2.77995,-0.908275 0.28358,-0.20868 0.52731,-0.466688 0.79097,-0.700032 0.98336,-0.98834 1.76733,-2.137561 2.43739,-3.353625 0.24465,-0.405458 0.41401,-0.85026 0.66973,-1.248424 0,0 -1.70229,-0.991586 -1.70229,-0.991586 v 0 c -0.25167,0.406746 -0.42832,0.852508 -0.66176,1.269978 -0.61911,1.216774 -1.35945,2.366055 -2.33256,3.334962 -0.79161,0.684004 -1.45561,1.271961 -2.54093,1.441503 -0.30629,0.04785 -0.62321,0.05446 -0.92996,0.0097 -0.31965,-0.04665 -0.64858,-0.44368 -0.92753,-0.280776 -0.23268,0.135882 0.461,0.279077 0.6915,0.418613 -0.9492,-0.591873 -1.09418,-0.661622 -2.0188,-1.324406 -0.80877,-0.579737 -1.56375,-1.221523 -2.3494,-1.830332 -0.14304,-0.110839 -0.29126,-0.214818 -0.43689,-0.322226 0,0 -1.83349,-0.707353 -1.83349,-0.707353 z" />
    <text
       xml:space="preserve"
       transform="matrix(0.26458333,0,0,0.26458333,1.3935114,-3.9470114)"
       id="text6611-6"
       style="font-style:normal;font-variant:normal;font-weight:bold;font-stretch:normal;font-size:14.6875px;font-family:'Comic Sans MS';-inkscape-font-specification:'Comic Sans MS, Bold';font-variant-ligatures:normal;font-variant-caps:normal;font-variant-numeric:normal;font-variant-east-asian:normal;white-space:pre;shape-inside:url(#rect6613-71-0-8-8);shape-padding:4.59052;display:inline;fill:#000000;fill-opacity:1;stroke:#000000;stroke-width:0.325152;stroke-linejoin:round;stroke-dasharray:none;stroke-dashoffset:0"
       x="187.66827"
       y="0"><tspan
         x="70.525391"
         y="92.274954"
         id="tspan8382"><tspan
           style="font-size:16px;text-align:center;text-anchor:middle"
           id="tspan8380">VOCÊ JÁ SE PERGUNTOU </tspan></tspan><tspan
         x="61.177734"
         y="112.27495"
         id="tspan8386"><tspan
           style="font-size:16px;text-align:center;text-anchor:middle"
           id="tspan8384">COMO É QUE FUNCIONA O </tspan></tspan><tspan
         x="54.736328"
         y="132.27495"
         id="tspan8390"><tspan
           style="font-size:16px;text-align:center;text-anchor:middle"
           id="tspan8388">FINANCIAMENTO COLETIVO </tspan></tspan><tspan
         x="46.900391"
         y="152.27495"
         id="tspan8394"><tspan
           style="font-size:16px;text-align:center;text-anchor:middle"
           id="tspan8392">DE QUADRINHOS NO BRASIL?</tspan></tspan></text>
    <path
       style="fill:#000000;fill-opacity:1;stroke:#000000;stroke-width:0.0860298;stroke-linejoin:round"
       id="path8230"
       d="m 53.455596,78.505763 c -1.809705,1.158193 -3.640238,2.283077 -5.414243,3.495853 -0.784614,0.620561 -1.736889,1.234371 -2.088213,2.226474 -0.20151,0.569039 -0.133954,0.721968 -0.119034,1.349933 0.04196,0.330562 0.07402,0.66253 0.125871,0.991685 0.07023,0.445849 0.160154,0.888373 0.240231,1.33256 0.08985,0.559634 0.182483,1.118828 0.269557,1.678898 0.308383,1.983528 0.581097,3.971949 0.887778,5.955755 0,0 1.580999,0.774427 1.580999,0.774427 v 0 c -0.412565,-2.528358 -0.718651,-5.068996 -1.089451,-7.603384 -0.06376,-0.435766 -0.145219,-0.868883 -0.205169,-1.305192 -0.04395,-0.319892 -0.07098,-0.641882 -0.106465,-0.962824 -0.01887,-0.583073 -0.08058,-0.729697 0.09386,-1.262076 0.315235,-0.962056 1.235536,-1.566854 1.976168,-2.177285 1.770068,-1.239544 3.603583,-2.389346 5.504799,-3.417909 0,0 -1.656691,-1.076915 -1.656691,-1.076915 z" />
    <path
       style="fill:#000000;fill-opacity:1;stroke:#000000;stroke-width:0.0860298;stroke-linejoin:round"
       id="path8232"
       d="m 53.170864,89.066173 c 0.02323,2.620904 0.398847,5.215236 0.782511,7.802166 0,0 1.636842,0.802446 1.636842,0.802446 v 0 c -0.414549,-2.548077 -0.810321,-5.119539 -0.663922,-7.710175 0,0 -1.755431,-0.894437 -1.755431,-0.894437 z" />
    <path
       style="fill:#000000;fill-opacity:1;stroke:#000000;stroke-width:0.0860298;stroke-linejoin:round"
       id="path8240"
       d="m 74.294592,86.171666 c 0.498287,2.595393 0.59314,5.249487 0.694007,7.884319 0,0 1.634638,0.823806 1.634638,0.823806 v 0 c -0.131395,-2.621468 -0.235609,-5.250217 -0.570121,-7.855407 0,0 -1.758524,-0.852718 -1.758524,-0.852718 z" />
    <path
       style="fill:#000000;fill-opacity:1;stroke:#000000;stroke-width:0.0860298;stroke-linejoin:round"
       id="path8246"
       d="m 72.290145,76.542177 c 0.932985,-0.299816 1.88441,-0.537279 2.840665,-0.749507 0.726009,-0.161126 1.239446,-0.291004 1.981814,-0.306011 0.302728,-0.0061 0.604512,0.03593 0.906769,0.05389 0.705924,0.139743 0.966848,0.157607 1.634188,0.420648 0.228701,0.09014 0.874718,0.447191 0.664729,0.319384 -1.933837,-1.17701 -1.07115,-0.65269 -0.663448,-0.09582 0.137739,0.188134 0.235715,0.402373 0.353573,0.603559 0.683065,1.584367 0.652198,3.333893 0.784744,5.022935 0.179824,1.84178 0.566573,3.653419 0.834525,5.482833 0.305363,1.958454 0.415316,3.938831 0.482079,5.917467 0.0038,1.358683 0.04305,2.712765 0.259254,4.055735 0.02753,0.144491 0.05506,0.288985 0.08259,0.433477 0,0 1.750827,0.848405 1.750827,0.848405 v 0 c -0.03102,-0.144219 -0.06204,-0.288436 -0.09305,-0.432655 -0.251579,-1.337992 -0.300741,-2.693778 -0.311904,-4.052998 -0.08211,-1.983767 -0.197334,-3.968896 -0.473646,-5.936581 -0.276778,-1.825209 -0.64565,-3.636428 -0.843894,-5.472964 -0.136575,-1.706033 -0.0914,-3.465531 -0.725504,-5.08494 -0.156212,-0.295711 -0.466063,-0.97251 -0.762891,-1.18296 -1.462791,-1.037122 -2.756194,-1.73161 -4.494223,-1.961716 -0.306044,-0.009 -0.612272,-0.04111 -0.918128,-0.02711 -0.739339,0.03383 -1.256734,0.173069 -1.979499,0.335475 -0.975153,0.21912 -1.946635,0.454033 -2.912893,0.709663 0,0 1.603327,1.099778 1.603327,1.099778 z" />
    <path
       style="fill:#000000;fill-opacity:1;stroke:#000000;stroke-width:0.0860298;stroke-linejoin:round"
       id="path8248"
       d="m 62.659262,58.788204 c 0.969142,0.533889 -0.585015,-0.354325 -0.885394,-0.51753 -0.193535,-0.105154 0.378508,0.225427 0.565116,0.342431 0.777854,0.503439 0.390191,0.257001 1.162788,0.73963 0,0 1.787014,0.692335 1.787014,0.692335 v 0 c -1.381172,-0.848423 -2.716329,-1.775566 -4.175704,-2.493663 0,0 1.54618,1.236797 1.54618,1.236797 z" />
    <path
       style="fill:#000000;fill-opacity:1;stroke:#000000;stroke-width:0.0860298;stroke-linejoin:round"
       id="path8252"
       d="m 53.094455,61.086772 c 0.493964,-0.341876 0.989,-0.681877 1.487242,-1.017493 0,0 -1.615342,-1.033827 -1.615342,-1.033827 v 0 c -0.506114,0.336862 -1.008359,0.680254 -1.527953,0.996265 0,0 1.656053,1.055055 1.656053,1.055055 z" />
    <path
       style="fill:#000000;fill-opacity:1;stroke:#000000;stroke-width:0.0860298;stroke-linejoin:round"
       id="path8266"
       d="m 20.464415,43.953641 c -0.95627,0.01442 -1.912742,0.01275 -2.869104,0.01302 -1.054609,-0.01733 -2.112377,0.03915 -3.165262,-0.0327 -0.136401,-0.03107 -0.275383,-0.05243 -0.409203,-0.09321 -0.527446,-0.160721 -0.910755,-0.431094 -0.863163,-0.405689 0.389592,0.207976 0.749653,0.480738 1.164854,0.631214 0.206582,0.07487 -0.354173,-0.260466 -0.524594,-0.399169 -0.21385,-0.174048 -0.418484,-0.359121 -0.627726,-0.538683 C 12.231916,42.256305 11.266743,41.400089 10.443349,40.414328 9.9490865,39.822601 9.8012421,39.571911 9.3687888,38.936511 8.4360638,37.401997 8.1464707,35.651736 7.9883615,33.894606 7.8177431,32.095588 7.9644194,30.303575 8.1951247,28.519077 c 0.2460776,-1.320839 0.4784561,-2.654476 0.8641871,-3.944124 0.2458151,-0.821856 0.3946694,-1.087707 0.7447841,-1.875372 0.6900791,-1.495526 1.5397351,-2.911275 2.5374271,-4.220544 0.582167,-0.682888 1.028942,-1.476351 1.634303,-2.138007 0.682895,-0.709944 1.33525,-1.458905 2.106768,-2.074238 0.90827,-0.701997 1.948953,-1.173129 2.985504,-1.647345 1.140519,-0.566482 2.340388,-0.984078 3.552219,-1.366662 1.620588,-0.439382 3.311171,-0.490751 4.979616,-0.547511 1.382059,-0.01615 2.764838,-0.04287 4.141124,-0.177596 1.618787,-0.174818 3.248046,-0.206571 4.874524,-0.236571 2.131939,-0.03103 4.261853,-0.134342 6.393569,-0.182987 3.053093,-0.07814 6.096275,-0.3378741 9.146384,-0.4841588 3.473508,-0.1469554 6.950456,-0.1643507 10.426435,-0.185357 2.416241,-0.015637 4.832493,0.00411 7.248612,0.027 1.181291,-0.052875 2.148523,0.2053286 3.204591,0.7038078 0.189027,0.09793 0.747393,0.406952 0.567076,0.293785 -0.354949,-0.222769 -0.725807,-0.419192 -1.091885,-0.6231581 -0.186301,-0.1038003 0.368777,0.2143251 0.552495,0.3226291 0.576654,0.339942 1.142812,0.69618 1.711974,1.048421 1.162187,0.686598 2.29436,1.418839 3.401869,2.190142 1.297281,0.853683 2.310974,2.053394 3.227941,3.290107 0.991758,1.42449 1.784566,2.97024 2.401522,4.589617 0.686877,1.93836 1.258959,3.913008 1.746464,5.910123 0.426831,1.827892 0.554972,3.702275 0.624607,5.572061 0.09157,1.473452 -0.02527,2.938886 -0.188947,4.401794 -0.08268,1.034031 -0.334369,2.04964 -0.817115,2.968802 -0.646276,0.920586 -1.632423,1.458063 -2.62841,1.920325 -1.148139,0.515908 -2.386135,0.69692 -3.627549,0.811088 -2.029616,0.122081 -4.064741,0.114977 -6.097286,0.120213 -2.074248,-0.01355 -4.144494,-0.05134 -6.209707,0.164645 -1.779156,0.235098 -3.569605,0.332362 -5.361919,0.387289 -2.146178,0.01087 -4.286819,0.05555 -6.426311,0.230603 -2.525784,0.158779 -5.034809,0.490249 -7.550975,0.748586 -1.787872,0.187682 -3.584583,0.243022 -5.380784,0.26947 -1.643113,0.01799 -3.286336,0.004 -4.929484,-5.29e-4 -1.033314,-7.94e-4 -2.066596,-0.0091 -3.099879,-0.01632 -0.898657,-0.119409 -1.802027,-0.215712 -2.700279,-0.341572 -0.688549,-0.129619 -1.404099,-0.220368 -2.071717,-0.440637 -0.349671,-0.08672 -0.652298,-0.274558 -1.001421,-0.36127 -0.493207,-0.08076 -0.997826,-0.06982 -1.496378,-0.07369 -0.103968,0.0096 -0.207938,0.01926 -0.311907,0.0289 0,0 1.595658,1.141783 1.595658,1.141783 v 0 c 0.100621,-0.0052 0.201242,-0.01037 0.301865,-0.01553 0.493403,0.0089 0.998366,-0.0021 1.478257,0.127994 0.332644,0.115814 0.648406,0.277464 0.994912,0.354434 0.679048,0.168923 1.36978,0.302143 2.06271,0.397795 0.909363,0.118489 1.819381,0.250555 2.731855,0.332521 1.021707,-0.0057 2.043422,-0.01117 3.065153,-0.0087 1.635376,2.65e-4 3.270731,-0.0069 4.906055,-0.02011 1.794608,-0.0236 3.589041,-0.07647 5.372557,-0.296468 2.511888,-0.273966 5.017411,-0.615098 7.542853,-0.748165 2.144697,-0.160965 4.290063,-0.191281 6.440128,-0.209651 1.798907,-0.05382 3.595198,-0.149902 5.380363,-0.3909 2.051468,-0.208907 4.108857,-0.183185 6.169035,-0.170477 2.050926,-5.29e-4 4.103963,0.01622 6.152401,-0.101891 1.263698,-0.120425 2.522376,-0.320323 3.688276,-0.851003 1.021675,-0.495398 2.0271,-1.078174 2.694855,-2.025785 0.495636,-0.939384 0.766009,-1.98138 0.837266,-3.041428 0.144174,-1.475361 0.282626,-2.952038 0.181415,-4.436393 -0.07568,-1.884801 -0.216927,-3.774133 -0.633868,-5.618723 -0.486661,-1.998842 -1.05015,-3.977086 -1.720466,-5.922639 -0.601755,-1.633746 -1.389592,-3.191057 -2.37026,-4.632515 -0.902903,-1.245284 -1.902264,-2.471942 -3.186713,-3.340875 -1.105561,-0.775 -2.232128,-1.517197 -3.397263,-2.200196 C 74.909788,10.888512 73.265926,9.8435003 71.528725,8.9731658 70.41567,8.4822376 69.511346,8.282874 68.284997,8.3424412 c -2.386066,0.018418 -4.772139,0.03744 -7.158286,0.040071 -3.472482,0.016955 -6.945022,0.071134 -10.415257,0.2022851 -3.066672,0.1325875 -6.127223,0.378343 -9.196679,0.442119 -2.140349,0.036101 -4.278608,0.1267942 -6.418717,0.1641867 -1.643367,0.026297 -3.289721,0.048293 -4.926079,0.2173105 -1.364821,0.121091 -2.733098,0.1736023 -4.103031,0.191667 -1.687074,0.06662 -3.397558,0.1190773 -5.03467,0.5715725 -1.217543,0.3848 -2.415775,0.82011 -3.561988,1.387682 -1.056881,0.473827 -2.110322,0.959749 -3.029576,1.677789 -0.769233,0.635176 -1.435563,1.384267 -2.137363,2.091764 -0.593966,0.678337 -1.047867,1.468746 -1.616806,2.168527 -0.97923,1.339376 -1.819694,2.774547 -2.5135016,4.282645 -0.1430536,0.317055 -0.3002037,0.628119 -0.4291606,0.951163 -0.6263071,1.568938 -0.8760033,3.265777 -1.2152751,4.910694 -0.2467983,1.794637 -0.3939818,3.595656 -0.2343179,5.407502 0.1421315,1.782717 0.4392633,3.557632 1.3450972,5.131355 0.4089723,0.614119 0.5972905,0.929696 1.0664687,1.502273 0.8134326,0.9927 1.7809473,1.845206 2.7051263,2.730246 1.224272,1.095126 1.530674,1.23277 3.25696,2.234067 0.411998,0.238969 0.856612,0.389001 1.330064,0.439066 1.052502,0.04461 2.106992,-0.0024 3.160172,0.01572 0.968316,2.64e-4 1.936734,-0.0013 2.904961,0.01302 0,0 -1.598724,-1.161542 -1.598724,-1.161542 z" />
    <path
       style="fill:#000000;fill-opacity:1;stroke:#000000;stroke-width:0.0860298;stroke-linejoin:round"
       id="path8268"
       d="m 26.06149,43.885715 c 0.06672,1.185119 0.437946,2.297133 0.829479,3.405933 0.417211,1.208993 0.856239,2.407568 1.389491,3.570388 0.432425,0.947264 0.955204,1.846414 1.513049,2.723817 0.422857,0.691811 1.03509,1.229048 1.64905,1.74593 1.21988,0.868632 2.557748,1.666179 4.035065,1.981705 0.747641,0.127188 1.507411,0.146733 2.263992,0.152969 0.279593,0.02379 0.435954,0.0172 0.70345,0.122031 0.125662,0.04925 0.477478,0.251886 0.359056,0.18714 -0.426754,-0.233312 -0.829715,-0.519425 -1.284102,-0.692881 -0.158446,-0.06048 0.257802,0.22147 0.373655,0.345332 0.12405,0.132625 0.229515,0.281482 0.344273,0.422225 0.68853,1.173543 0.812019,2.562616 0.9955,3.885581 0.165981,1.189349 0.773266,2.21538 1.411198,3.207064 0.707088,0.965677 1.551355,1.828086 2.401697,2.668421 0.915222,0.717582 1.922719,1.350113 2.989111,1.813277 0,0 -1.54024,-1.225476 -1.54024,-1.225476 v 0 c -0.677513,-0.340878 -0.578593,-0.296905 1.20442,0.719323 0.09075,0.05172 -0.176254,-0.11216 -0.264316,-0.168344 -0.383169,-0.244467 -0.198834,-0.121182 -0.588396,-0.396946 -0.873337,-0.819539 -1.711825,-1.69381 -2.446218,-2.639381 -0.63346,-0.966507 -1.244129,-1.968666 -1.437855,-3.127443 -0.197477,-1.344684 -0.335396,-2.744055 -0.948933,-3.974523 -0.858726,-1.155266 -1.087512,-1.109001 -2.735855,-2.049045 -0.342173,-0.195141 -0.734026,-0.237614 -1.118706,-0.24878 -0.74676,-0.0114 -1.498209,-0.03017 -2.232218,-0.182316 -0.4069,-0.103333 -0.792872,-0.223142 -1.17737,-0.39469 -0.136866,-0.06106 -0.530367,-0.27741 -0.40496,-0.195341 0.291716,0.190904 1.980221,1.209569 0.90764,0.519691 -0.616562,-0.499324 -1.239896,-1.024329 -1.678427,-1.692402 -0.561531,-0.873839 -1.109845,-1.758283 -1.53911,-2.707044 -0.544037,-1.157293 -0.996231,-2.350093 -1.410116,-3.559966 -0.385199,-1.084009 -0.786262,-2.173888 -0.791705,-3.341151 0,0 -1.771599,-0.875098 -1.771599,-0.875098 z" />
    <path
       style="fill:#000000;fill-opacity:1;stroke:#000000;stroke-width:0.0860298;stroke-linejoin:round"
       id="path8272"
       d="m 46.092768,69.472357 c -0.902192,-0.650092 -1.77006,-1.345909 -2.657898,-2.01558 -0.814099,-0.576162 -1.543659,-1.252215 -2.26532,-1.937398 -0.68798,-0.632725 -1.371039,-1.270442 -2.045923,-1.917063 -0.556471,-0.542377 -1.033946,-1.155231 -1.571879,-1.715233 -0.476514,-0.426349 -0.84755,-0.990787 -1.405733,-1.323821 -0.646063,-0.385466 -1.303047,-0.752319 -1.95457,-1.12848 -0.496226,-0.201932 -1.020535,-0.318286 -1.534491,-0.463955 -0.501851,-0.121107 -1.00657,-0.24262 -1.480608,-0.450294 -0.575733,-0.349017 -1.760302,-0.927584 0.898914,0.520364 0.09553,0.05202 -0.178814,-0.12401 -0.265689,-0.189466 -0.147254,-0.110953 -0.32997,-0.266477 -0.471927,-0.38504 -0.46659,-0.350816 -0.861312,-0.784608 -1.258216,-1.21005 -0.56344,-0.627298 -1.109538,-1.270236 -1.640739,-1.924998 -0.55961,-0.711231 -1.059744,-1.464847 -1.566193,-2.213898 -0.559457,-0.921507 -1.169316,-1.809848 -1.755512,-2.714146 -0.508623,-0.847402 -1.04402,-1.678051 -1.57709,-2.510166 -0.375263,-0.572195 -0.634136,-1.204618 -0.998248,-1.783312 -0.335524,-0.405543 -0.557046,-0.875406 -0.797623,-1.337771 -0.03486,-0.06754 -0.06972,-0.135077 -0.104574,-0.202615 0,0 -1.796781,-0.811826 -1.796781,-0.811826 v 0 c 0.03438,0.06921 0.06876,0.138422 0.103148,0.207634 0.257041,0.459121 0.43975,0.959599 0.79986,1.356286 0.385004,0.573357 0.643475,1.207744 1.013836,1.789684 0.541074,0.828482 1.079824,1.659493 1.581917,2.51233 0.584644,0.905047 1.213137,1.780894 1.750877,2.71599 0.504773,0.752692 1.006018,1.507601 1.557016,2.227781 0.524325,0.658783 1.072365,1.299104 1.627304,1.932212 0.385326,0.43501 0.777912,0.879251 1.241259,1.230712 0.217024,0.18619 0.487902,0.462087 0.728006,0.607902 0.795488,0.483095 1.626052,0.985721 2.475288,1.397743 0.488611,0.180023 0.991444,0.310195 1.4967,0.434422 0.508286,0.136033 1.024986,0.26361 1.500072,0.494922 -2.73897,-1.614046 -1.349106,-0.864629 -0.845969,-0.427368 0.317672,0.276077 0.563224,0.625096 0.881248,0.90107 0.545367,0.556432 1.023149,1.167506 1.56931,1.722744 0.682448,0.642972 1.357373,1.293842 2.055296,1.920394 0.721763,0.693134 1.444541,1.385424 2.265831,1.961689 0.875686,0.662078 1.74171,1.335482 2.612824,2.00328 0,0 1.836277,0.725321 1.836277,0.725321 z" />
  </g>
</svg>
